<?xml version="1.0" encoding="UTF-8" standalone="no"?>
<!-- Creator: CorelDRAW X7 -->

<svg
   xmlns:dc="http://purl.org/dc/elements/1.1/"
   xmlns:cc="http://creativecommons.org/ns#"
   xmlns:rdf="http://www.w3.org/1999/02/22-rdf-syntax-ns#"
   xmlns:svg="http://www.w3.org/2000/svg"
   xmlns="http://www.w3.org/2000/svg"
   xmlns:sodipodi="http://sodipodi.sourceforge.net/DTD/sodipodi-0.dtd"
   xmlns:inkscape="http://www.inkscape.org/namespaces/inkscape"
   xml:space="preserve"
   width="22.3239mm"
   height="35.0229mm"
   version="1.1"
   shape-rendering="geometricPrecision"
   text-rendering="geometricPrecision"
   image-rendering="optimizeQuality"
   fill-rule="evenodd"
   clip-rule="evenodd"
   viewBox="0 0 504 791"
   id="svg6"
   sodipodi:docname="handysignatur.svg"
   inkscape:version="0.92.3 (2405546, 2018-03-11)"><metadata
   id="metadata12"><rdf:RDF><cc:Work
       rdf:about=""><dc:format>image/svg+xml</dc:format><dc:type
         rdf:resource="http://purl.org/dc/dcmitype/StillImage" /></cc:Work></rdf:RDF></metadata><defs
   id="defs10" /><sodipodi:namedview
   pagecolor="#ffffff"
   bordercolor="#666666"
   borderopacity="1"
   objecttolerance="10"
   gridtolerance="10"
   guidetolerance="10"
   inkscape:pageopacity="0"
   inkscape:pageshadow="2"
   inkscape:window-width="1920"
   inkscape:window-height="1017"
   id="namedview8"
   showgrid="false"
   inkscape:zoom="1.7828811"
   inkscape:cx="42.186898"
   inkscape:cy="66.185007"
   inkscape:window-x="1912"
   inkscape:window-y="-8"
   inkscape:window-maximized="1"
   inkscape:current-layer="Ebene_x0020_1" />
 <g
   id="Ebene_x0020_1">
  <metadata
   id="CorelCorpID_0Corel-Layer" />
  <path
   fill="#D21519"
   d="M368 541c0,9 -15,66 -21,60 -7,-7 4,-35 12,-48 2,-2 9,-11 9,-12zm-6 -102l2 6c1,7 2,18 1,24 -2,7 -13,16 -22,13 -16,-4 17,-41 19,-43zm-362 -392l0 700 1 2c5,15 6,26 26,36 5,3 12,4 17,6l415 0c6,-3 29,-4 40,-29 2,-6 3,-15 5,-18l0 -11c-3,-4 -4,-8 -10,-8 -20,-2 -9,22 -21,35 -12,11 -46,7 -67,7l-296 0c-16,0 -59,3 -71,-2 -20,-9 -16,-36 -16,-61 1,-197 0,-395 0,-592 0,-17 -2,-60 3,-72 8,-21 34,-17 58,-17l296 0c88,0 101,-10 101,50 0,98 0,197 0,296 0,99 0,198 -1,297l-390 0 0 -543 325 0c2,28 0,61 0,89 0,36 2,151 -1,178 -2,30 -12,46 -21,69l-2 -6c-1,-3 -1,-5 -2,-8 -3,-14 -6,-33 -25,-22 -4,-2 -4,-5 -11,-5 -14,1 -50,44 -64,56 0,-8 3,-26 4,-36 0,-5 2,-11 -1,-16 -10,-15 -28,6 -37,13 -5,5 -16,14 -22,18 -3,-7 -11,-31 -15,-35 -11,-11 -26,9 -31,14l-53 49c-5,5 -25,18 -13,30 11,10 26,-9 31,-15l53 -49c3,4 7,17 9,22 -38,34 0,53 19,36 7,-7 7,-15 7,-27 3,-3 24,-19 27,-20 -2,17 -9,46 9,50 16,5 26,-15 39,-25 5,6 4,15 18,21 13,5 24,0 34,-3 -3,6 -22,31 -29,41 -32,48 -13,97 21,80 14,-8 21,-29 26,-45 5,-19 9,-38 10,-59 1,-20 -1,-13 7,-27 29,-50 36,-75 36,-139l0 -209c0,-26 3,-43 -26,-44 -104,-1 -209,1 -313,0 -41,0 -33,25 -33,72l0 488c0,28 12,31 39,31 31,0 373,1 382,-1 5,-2 8,-4 11,-7 5,-5 3,-6 6,-11l0 -625c-2,-4 -3,-13 -6,-19 -12,-25 -33,-24 -40,-27l-412 0c-4,2 -12,3 -18,5 -25,12 -25,36 -28,42z"
   id="path3"
   style="stroke:#657f8c;stroke-opacity:1;fill:#657f8c;fill-opacity:1" />
 </g>
</svg>